<mxfile host="Electron" modified="2024-06-16T12:10:50.377Z" agent="Mozilla/5.0 (Windows NT 10.0; Win64; x64) AppleWebKit/537.36 (KHTML, like Gecko) draw.io/24.5.3 Chrome/124.0.6367.207 Electron/30.0.6 Safari/537.36" etag="CCop-ppyzr1PSQqcAHKB" version="24.5.3" type="device" pages="3">
  <diagram name="data-type" id="IhphP7UpqXg3msKNzWgd">
    <mxGraphModel dx="1050" dy="667" grid="1" gridSize="10" guides="1" tooltips="1" connect="1" arrows="1" fold="1" page="1" pageScale="1" pageWidth="291" pageHeight="413" math="0" shadow="0">
      <root>
        <mxCell id="0" />
        <mxCell id="1" parent="0" />
        <mxCell id="7ZD1Rkt-yhet6KayD6V5-5" style="edgeStyle=orthogonalEdgeStyle;rounded=0;orthogonalLoop=1;jettySize=auto;html=1;exitX=1;exitY=0.5;exitDx=0;exitDy=0;entryX=0;entryY=0.5;entryDx=0;entryDy=0;fontFamily=Helvetica;endArrow=none;endFill=0;" parent="1" source="7ZD1Rkt-yhet6KayD6V5-2" target="7ZD1Rkt-yhet6KayD6V5-3" edge="1">
          <mxGeometry relative="1" as="geometry">
            <Array as="points">
              <mxPoint x="210" y="235" />
              <mxPoint x="210" y="145" />
            </Array>
          </mxGeometry>
        </mxCell>
        <mxCell id="7ZD1Rkt-yhet6KayD6V5-7" style="edgeStyle=orthogonalEdgeStyle;rounded=0;orthogonalLoop=1;jettySize=auto;html=1;exitX=1;exitY=0.5;exitDx=0;exitDy=0;entryX=0;entryY=0.5;entryDx=0;entryDy=0;fontFamily=Helvetica;endArrow=none;endFill=0;" parent="1" source="7ZD1Rkt-yhet6KayD6V5-2" target="7ZD1Rkt-yhet6KayD6V5-6" edge="1">
          <mxGeometry relative="1" as="geometry">
            <Array as="points">
              <mxPoint x="210" y="235" />
              <mxPoint x="210" y="325" />
            </Array>
          </mxGeometry>
        </mxCell>
        <mxCell id="7ZD1Rkt-yhet6KayD6V5-2" value="数据类型" style="rounded=1;fontSize=18;shadow=1;shadowOpacity=100;shadowOffsetX=3;shadowOffsetY=-3;shadowBlur=0;fontFamily=Helvetica;" parent="1" vertex="1">
          <mxGeometry x="80" y="210" width="100" height="50" as="geometry" />
        </mxCell>
        <mxCell id="7ZD1Rkt-yhet6KayD6V5-12" style="edgeStyle=orthogonalEdgeStyle;rounded=0;orthogonalLoop=1;jettySize=auto;html=1;exitX=1;exitY=0.5;exitDx=0;exitDy=0;entryX=0;entryY=0.5;entryDx=0;entryDy=0;fontFamily=Helvetica;endArrow=none;endFill=0;" parent="1" source="7ZD1Rkt-yhet6KayD6V5-3" target="7ZD1Rkt-yhet6KayD6V5-10" edge="1">
          <mxGeometry relative="1" as="geometry" />
        </mxCell>
        <mxCell id="7ZD1Rkt-yhet6KayD6V5-13" style="edgeStyle=orthogonalEdgeStyle;rounded=0;orthogonalLoop=1;jettySize=auto;html=1;exitX=1;exitY=0.5;exitDx=0;exitDy=0;entryX=0;entryY=0.5;entryDx=0;entryDy=0;fontFamily=Helvetica;endArrow=none;endFill=0;" parent="1" source="7ZD1Rkt-yhet6KayD6V5-3" target="7ZD1Rkt-yhet6KayD6V5-11" edge="1">
          <mxGeometry relative="1" as="geometry" />
        </mxCell>
        <mxCell id="7ZD1Rkt-yhet6KayD6V5-14" style="edgeStyle=orthogonalEdgeStyle;rounded=0;orthogonalLoop=1;jettySize=auto;html=1;exitX=1;exitY=0.5;exitDx=0;exitDy=0;entryX=0;entryY=0.5;entryDx=0;entryDy=0;fontFamily=Helvetica;endArrow=none;endFill=0;" parent="1" source="7ZD1Rkt-yhet6KayD6V5-3" target="7ZD1Rkt-yhet6KayD6V5-8" edge="1">
          <mxGeometry relative="1" as="geometry" />
        </mxCell>
        <mxCell id="7ZD1Rkt-yhet6KayD6V5-3" value="基本数据类型" style="rounded=1;fontSize=18;shadow=1;shadowOpacity=100;shadowOffsetX=0;shadowOffsetY=-3;shadowBlur=0;fontFamily=Helvetica;" parent="1" vertex="1">
          <mxGeometry x="240" y="120" width="130" height="50" as="geometry" />
        </mxCell>
        <mxCell id="7ZD1Rkt-yhet6KayD6V5-44" style="edgeStyle=orthogonalEdgeStyle;rounded=0;orthogonalLoop=1;jettySize=auto;html=1;exitX=1;exitY=0.5;exitDx=0;exitDy=0;entryX=0;entryY=0.5;entryDx=0;entryDy=0;fontFamily=Helvetica;endArrow=none;endFill=0;" parent="1" source="7ZD1Rkt-yhet6KayD6V5-6" target="7ZD1Rkt-yhet6KayD6V5-35" edge="1">
          <mxGeometry relative="1" as="geometry" />
        </mxCell>
        <mxCell id="7ZD1Rkt-yhet6KayD6V5-45" style="edgeStyle=orthogonalEdgeStyle;rounded=0;orthogonalLoop=1;jettySize=auto;html=1;exitX=1;exitY=0.5;exitDx=0;exitDy=0;entryX=0;entryY=0.5;entryDx=0;entryDy=0;fontFamily=Helvetica;endArrow=none;endFill=0;" parent="1" source="7ZD1Rkt-yhet6KayD6V5-6" target="7ZD1Rkt-yhet6KayD6V5-36" edge="1">
          <mxGeometry relative="1" as="geometry" />
        </mxCell>
        <mxCell id="7ZD1Rkt-yhet6KayD6V5-46" style="edgeStyle=orthogonalEdgeStyle;rounded=0;orthogonalLoop=1;jettySize=auto;html=1;exitX=1;exitY=0.5;exitDx=0;exitDy=0;entryX=0;entryY=0.5;entryDx=0;entryDy=0;fontFamily=Helvetica;endArrow=none;endFill=0;" parent="1" source="7ZD1Rkt-yhet6KayD6V5-6" target="7ZD1Rkt-yhet6KayD6V5-37" edge="1">
          <mxGeometry relative="1" as="geometry" />
        </mxCell>
        <mxCell id="7ZD1Rkt-yhet6KayD6V5-6" value="引用数据类型" style="rounded=1;fontSize=18;shadow=1;shadowOpacity=100;shadowOffsetX=0;shadowOffsetY=-3;shadowBlur=0;fontFamily=Helvetica;" parent="1" vertex="1">
          <mxGeometry x="240" y="300" width="130" height="50" as="geometry" />
        </mxCell>
        <mxCell id="7ZD1Rkt-yhet6KayD6V5-18" style="edgeStyle=orthogonalEdgeStyle;rounded=0;orthogonalLoop=1;jettySize=auto;html=1;exitX=1;exitY=0.5;exitDx=0;exitDy=0;entryX=0;entryY=0.5;entryDx=0;entryDy=0;fontFamily=Helvetica;endArrow=none;endFill=0;" parent="1" source="7ZD1Rkt-yhet6KayD6V5-8" target="7ZD1Rkt-yhet6KayD6V5-16" edge="1">
          <mxGeometry relative="1" as="geometry" />
        </mxCell>
        <mxCell id="7ZD1Rkt-yhet6KayD6V5-20" style="edgeStyle=orthogonalEdgeStyle;rounded=0;orthogonalLoop=1;jettySize=auto;html=1;exitX=1;exitY=0.5;exitDx=0;exitDy=0;entryX=0;entryY=0.5;entryDx=0;entryDy=0;fontFamily=Helvetica;endArrow=none;endFill=0;" parent="1" source="7ZD1Rkt-yhet6KayD6V5-8" target="7ZD1Rkt-yhet6KayD6V5-19" edge="1">
          <mxGeometry relative="1" as="geometry" />
        </mxCell>
        <mxCell id="7ZD1Rkt-yhet6KayD6V5-8" value="数值型" style="rounded=1;fontSize=18;shadow=1;shadowOpacity=100;shadowOffsetX=0;shadowOffsetY=3;shadowBlur=0;fontFamily=Helvetica;" parent="1" vertex="1">
          <mxGeometry x="430" y="35.00000000000003" width="80" height="40" as="geometry" />
        </mxCell>
        <mxCell id="kwm7BLYL6Nc1TBplARpD-10" style="edgeStyle=orthogonalEdgeStyle;rounded=0;orthogonalLoop=1;jettySize=auto;html=1;exitX=1;exitY=0.5;exitDx=0;exitDy=0;entryX=0;entryY=0.5;entryDx=0;entryDy=0;endArrow=none;endFill=0;" parent="1" source="7ZD1Rkt-yhet6KayD6V5-10" target="kwm7BLYL6Nc1TBplARpD-9" edge="1">
          <mxGeometry relative="1" as="geometry" />
        </mxCell>
        <mxCell id="7ZD1Rkt-yhet6KayD6V5-10" value="字符型" style="rounded=1;fontSize=18;shadow=1;shadowOpacity=100;shadowOffsetX=0;shadowOffsetY=3;shadowBlur=0;fontFamily=Helvetica;" parent="1" vertex="1">
          <mxGeometry x="430" y="125.00000000000003" width="80" height="40" as="geometry" />
        </mxCell>
        <mxCell id="kwm7BLYL6Nc1TBplARpD-17" style="edgeStyle=orthogonalEdgeStyle;rounded=0;orthogonalLoop=1;jettySize=auto;html=1;exitX=1;exitY=0.5;exitDx=0;exitDy=0;entryX=0;entryY=0.5;entryDx=0;entryDy=0;endArrow=none;endFill=0;" parent="1" source="7ZD1Rkt-yhet6KayD6V5-11" target="kwm7BLYL6Nc1TBplARpD-11" edge="1">
          <mxGeometry relative="1" as="geometry" />
        </mxCell>
        <mxCell id="7ZD1Rkt-yhet6KayD6V5-11" value="布尔型" style="rounded=1;fontSize=18;shadow=1;shadowOpacity=100;shadowOffsetX=0;shadowOffsetY=3;shadowBlur=0;fontFamily=Helvetica;" parent="1" vertex="1">
          <mxGeometry x="430" y="185.00000000000003" width="80" height="40" as="geometry" />
        </mxCell>
        <mxCell id="kwm7BLYL6Nc1TBplARpD-5" style="edgeStyle=orthogonalEdgeStyle;rounded=0;orthogonalLoop=1;jettySize=auto;html=1;exitX=1;exitY=0.5;exitDx=0;exitDy=0;entryX=0;entryY=0.5;entryDx=0;entryDy=0;endArrow=none;endFill=0;" parent="1" source="7ZD1Rkt-yhet6KayD6V5-16" target="kwm7BLYL6Nc1TBplARpD-1" edge="1">
          <mxGeometry relative="1" as="geometry" />
        </mxCell>
        <mxCell id="7ZD1Rkt-yhet6KayD6V5-16" value="整数类型" style="rounded=1;fontSize=18;shadow=1;shadowOpacity=100;shadowOffsetX=-3;shadowOffsetY=0;shadowBlur=0;fontFamily=Helvetica;" parent="1" vertex="1">
          <mxGeometry x="560" y="5.000000000000028" width="100" height="40" as="geometry" />
        </mxCell>
        <mxCell id="kwm7BLYL6Nc1TBplARpD-8" style="edgeStyle=orthogonalEdgeStyle;rounded=0;orthogonalLoop=1;jettySize=auto;html=1;exitX=1;exitY=0.5;exitDx=0;exitDy=0;entryX=0;entryY=0.5;entryDx=0;entryDy=0;endArrow=none;endFill=0;" parent="1" source="7ZD1Rkt-yhet6KayD6V5-19" target="kwm7BLYL6Nc1TBplARpD-6" edge="1">
          <mxGeometry relative="1" as="geometry" />
        </mxCell>
        <mxCell id="7ZD1Rkt-yhet6KayD6V5-19" value="浮点类型" style="rounded=1;fontSize=18;shadow=1;shadowOpacity=100;shadowOffsetX=-3;shadowOffsetY=0;shadowBlur=0;fontFamily=Helvetica;" parent="1" vertex="1">
          <mxGeometry x="560" y="65" width="100" height="40" as="geometry" />
        </mxCell>
        <mxCell id="kwm7BLYL6Nc1TBplARpD-18" style="edgeStyle=orthogonalEdgeStyle;rounded=0;orthogonalLoop=1;jettySize=auto;html=1;exitX=1;exitY=0.5;exitDx=0;exitDy=0;entryX=0;entryY=0.5;entryDx=0;entryDy=0;endArrow=none;endFill=0;" parent="1" source="7ZD1Rkt-yhet6KayD6V5-35" target="kwm7BLYL6Nc1TBplARpD-13" edge="1">
          <mxGeometry relative="1" as="geometry" />
        </mxCell>
        <mxCell id="7ZD1Rkt-yhet6KayD6V5-35" value="类" style="rounded=1;fontSize=18;shadow=1;shadowOpacity=100;shadowOffsetX=0;shadowOffsetY=3;shadowBlur=0;fontFamily=Helvetica;" parent="1" vertex="1">
          <mxGeometry x="430" y="245" width="80" height="40" as="geometry" />
        </mxCell>
        <mxCell id="kwm7BLYL6Nc1TBplARpD-19" style="edgeStyle=orthogonalEdgeStyle;rounded=0;orthogonalLoop=1;jettySize=auto;html=1;exitX=1;exitY=0.5;exitDx=0;exitDy=0;entryX=0;entryY=0.5;entryDx=0;entryDy=0;endArrow=none;endFill=0;" parent="1" source="7ZD1Rkt-yhet6KayD6V5-36" target="kwm7BLYL6Nc1TBplARpD-14" edge="1">
          <mxGeometry relative="1" as="geometry" />
        </mxCell>
        <mxCell id="7ZD1Rkt-yhet6KayD6V5-36" value="接口" style="rounded=1;fontSize=18;shadow=1;shadowOpacity=100;shadowOffsetX=0;shadowOffsetY=3;shadowBlur=0;fontFamily=Helvetica;" parent="1" vertex="1">
          <mxGeometry x="430" y="305" width="80" height="40" as="geometry" />
        </mxCell>
        <mxCell id="7ZD1Rkt-yhet6KayD6V5-37" value="数组" style="rounded=1;fontSize=18;shadow=1;shadowOpacity=100;shadowOffsetX=0;shadowOffsetY=3;shadowBlur=0;fontFamily=Helvetica;" parent="1" vertex="1">
          <mxGeometry x="430" y="365" width="80" height="40" as="geometry" />
        </mxCell>
        <mxCell id="kwm7BLYL6Nc1TBplARpD-1" value="byte" style="rounded=1;fontSize=18;shadow=1;shadowOpacity=100;shadowOffsetX=3;shadowOffsetY=0;shadowBlur=0;" parent="1" vertex="1">
          <mxGeometry x="700" y="5" width="60" height="40" as="geometry" />
        </mxCell>
        <mxCell id="kwm7BLYL6Nc1TBplARpD-2" value="short" style="rounded=1;fontSize=18;shadow=1;shadowOpacity=100;shadowOffsetX=3;shadowOffsetY=0;shadowBlur=0;" parent="1" vertex="1">
          <mxGeometry x="770" y="5" width="60" height="40" as="geometry" />
        </mxCell>
        <mxCell id="kwm7BLYL6Nc1TBplARpD-3" value="int" style="rounded=1;fontSize=18;shadow=1;shadowOpacity=100;shadowOffsetX=3;shadowOffsetY=0;shadowBlur=0;" parent="1" vertex="1">
          <mxGeometry x="840" y="5" width="60" height="40" as="geometry" />
        </mxCell>
        <mxCell id="kwm7BLYL6Nc1TBplARpD-4" value="long" style="rounded=1;fontSize=18;shadow=1;shadowOpacity=100;shadowOffsetX=3;shadowOffsetY=0;shadowBlur=0;" parent="1" vertex="1">
          <mxGeometry x="910" y="5" width="60" height="40" as="geometry" />
        </mxCell>
        <mxCell id="kwm7BLYL6Nc1TBplARpD-6" value="float" style="rounded=1;fontSize=18;shadow=1;shadowOpacity=100;shadowOffsetX=3;shadowOffsetY=0;shadowBlur=0;" parent="1" vertex="1">
          <mxGeometry x="700" y="65" width="60" height="40" as="geometry" />
        </mxCell>
        <mxCell id="kwm7BLYL6Nc1TBplARpD-7" value="double" style="rounded=1;fontSize=18;shadow=1;shadowOpacity=100;shadowOffsetX=3;shadowOffsetY=0;shadowBlur=0;" parent="1" vertex="1">
          <mxGeometry x="770" y="65" width="60" height="40" as="geometry" />
        </mxCell>
        <mxCell id="kwm7BLYL6Nc1TBplARpD-9" value="char" style="rounded=1;fontSize=18;shadow=1;shadowOpacity=100;shadowOffsetX=3;shadowOffsetY=0;shadowBlur=0;" parent="1" vertex="1">
          <mxGeometry x="560" y="125" width="60" height="40" as="geometry" />
        </mxCell>
        <mxCell id="kwm7BLYL6Nc1TBplARpD-11" value="boolean" style="rounded=1;fontSize=18;shadow=1;shadowOpacity=100;shadowOffsetX=3;shadowOffsetY=0;shadowBlur=0;" parent="1" vertex="1">
          <mxGeometry x="560" y="185" width="90" height="40" as="geometry" />
        </mxCell>
        <mxCell id="kwm7BLYL6Nc1TBplARpD-13" value="class" style="rounded=1;fontSize=18;shadow=1;shadowOpacity=100;shadowOffsetX=3;shadowOffsetY=0;shadowBlur=0;" parent="1" vertex="1">
          <mxGeometry x="560" y="245" width="60" height="40" as="geometry" />
        </mxCell>
        <mxCell id="kwm7BLYL6Nc1TBplARpD-14" value="interface" style="rounded=1;fontSize=18;shadow=1;shadowOpacity=100;shadowOffsetX=3;shadowOffsetY=0;shadowBlur=0;" parent="1" vertex="1">
          <mxGeometry x="560" y="305" width="90" height="40" as="geometry" />
        </mxCell>
        <mxCell id="kwm7BLYL6Nc1TBplARpD-16" value="[]" style="rounded=1;fontSize=18;shadow=1;shadowOpacity=100;shadowOffsetX=3;shadowOffsetY=0;shadowBlur=0;" parent="1" vertex="1">
          <mxGeometry x="560" y="365" width="60" height="40" as="geometry" />
        </mxCell>
        <mxCell id="kwm7BLYL6Nc1TBplARpD-20" style="edgeStyle=orthogonalEdgeStyle;rounded=0;orthogonalLoop=1;jettySize=auto;html=1;exitX=1;exitY=0.5;exitDx=0;exitDy=0;entryX=0;entryY=0.5;entryDx=0;entryDy=0;endArrow=none;endFill=0;" parent="1" source="7ZD1Rkt-yhet6KayD6V5-37" target="kwm7BLYL6Nc1TBplARpD-16" edge="1">
          <mxGeometry relative="1" as="geometry" />
        </mxCell>
      </root>
    </mxGraphModel>
  </diagram>
  <diagram id="0UCqKzL4QSW9C0teI-bL" name="type-conversion">
    <mxGraphModel dx="955" dy="608" grid="1" gridSize="10" guides="1" tooltips="1" connect="1" arrows="1" fold="1" page="1" pageScale="1" pageWidth="291" pageHeight="413" math="0" shadow="0">
      <root>
        <mxCell id="0" />
        <mxCell id="1" parent="0" />
        <UserObject label="" tooltip="实线表示无数据丢失的自动类型转换；虚线表示在转换时可能会有精度损失。" id="Q2dZrIyihSpCJHTNgfPx-53">
          <mxCell style="swimlane;startSize=0;strokeColor=none;swimlaneFillColor=default;" vertex="1" parent="1">
            <mxGeometry x="40" y="40" width="620" height="290" as="geometry">
              <mxRectangle x="40" y="40" width="50" height="40" as="alternateBounds" />
            </mxGeometry>
          </mxCell>
        </UserObject>
        <mxCell id="Q2dZrIyihSpCJHTNgfPx-38" value="" style="edgeStyle=orthogonalEdgeStyle;rounded=0;orthogonalLoop=1;jettySize=auto;exitX=1;exitY=0.5;exitDx=0;exitDy=0;entryX=0;entryY=0.5;entryDx=0;entryDy=0;" edge="1" parent="Q2dZrIyihSpCJHTNgfPx-53" source="Q2dZrIyihSpCJHTNgfPx-36" target="Q2dZrIyihSpCJHTNgfPx-37">
          <mxGeometry relative="1" as="geometry" />
        </mxCell>
        <mxCell id="Q2dZrIyihSpCJHTNgfPx-36" value="byte" style="rounded=1;fontSize=18;shadow=1;shadowOpacity=100;shadowOffsetX=3;shadowOffsetY=-3;shadowBlur=0;" vertex="1" parent="Q2dZrIyihSpCJHTNgfPx-53">
          <mxGeometry x="20" y="120" width="100" height="50" as="geometry" />
        </mxCell>
        <mxCell id="Q2dZrIyihSpCJHTNgfPx-44" value="" style="edgeStyle=orthogonalEdgeStyle;rounded=0;orthogonalLoop=1;jettySize=auto;exitX=1;exitY=0.5;exitDx=0;exitDy=0;entryX=0;entryY=0.5;entryDx=0;entryDy=0;" edge="1" parent="Q2dZrIyihSpCJHTNgfPx-53" source="Q2dZrIyihSpCJHTNgfPx-37" target="Q2dZrIyihSpCJHTNgfPx-39">
          <mxGeometry relative="1" as="geometry" />
        </mxCell>
        <mxCell id="Q2dZrIyihSpCJHTNgfPx-37" value="short" style="rounded=1;fontSize=18;shadow=1;shadowOpacity=100;shadowOffsetX=3;shadowOffsetY=-3;shadowBlur=0;" vertex="1" parent="Q2dZrIyihSpCJHTNgfPx-53">
          <mxGeometry x="180" y="120" width="100" height="50" as="geometry" />
        </mxCell>
        <mxCell id="Q2dZrIyihSpCJHTNgfPx-45" value="" style="edgeStyle=orthogonalEdgeStyle;rounded=0;orthogonalLoop=1;jettySize=auto;exitX=1;exitY=0.5;exitDx=0;exitDy=0;entryX=0;entryY=0.5;entryDx=0;entryDy=0;" edge="1" parent="Q2dZrIyihSpCJHTNgfPx-53" source="Q2dZrIyihSpCJHTNgfPx-39" target="Q2dZrIyihSpCJHTNgfPx-40">
          <mxGeometry relative="1" as="geometry" />
        </mxCell>
        <mxCell id="Q2dZrIyihSpCJHTNgfPx-48" value="" style="edgeStyle=orthogonalEdgeStyle;rounded=0;orthogonalLoop=1;jettySize=auto;exitX=0.5;exitY=1;exitDx=0;exitDy=0;entryX=0.5;entryY=0;entryDx=0;entryDy=0;dashed=1;" edge="1" parent="Q2dZrIyihSpCJHTNgfPx-53" source="Q2dZrIyihSpCJHTNgfPx-39" target="Q2dZrIyihSpCJHTNgfPx-41">
          <mxGeometry relative="1" as="geometry" />
        </mxCell>
        <mxCell id="Q2dZrIyihSpCJHTNgfPx-39" value="int" style="rounded=1;fontSize=18;shadow=1;shadowOpacity=100;shadowOffsetX=3;shadowOffsetY=-3;shadowBlur=0;" vertex="1" parent="Q2dZrIyihSpCJHTNgfPx-53">
          <mxGeometry x="340" y="120" width="100" height="50" as="geometry" />
        </mxCell>
        <mxCell id="Q2dZrIyihSpCJHTNgfPx-50" value="" style="edgeStyle=orthogonalEdgeStyle;rounded=0;orthogonalLoop=1;jettySize=auto;exitX=0.5;exitY=1;exitDx=0;exitDy=0;entryX=0.5;entryY=0;entryDx=0;entryDy=0;dashed=1;" edge="1" parent="Q2dZrIyihSpCJHTNgfPx-53" source="Q2dZrIyihSpCJHTNgfPx-40" target="Q2dZrIyihSpCJHTNgfPx-42">
          <mxGeometry relative="1" as="geometry" />
        </mxCell>
        <mxCell id="Q2dZrIyihSpCJHTNgfPx-52" value="" style="rounded=0;orthogonalLoop=1;jettySize=auto;exitX=0;exitY=1;exitDx=0;exitDy=0;entryX=1;entryY=0;entryDx=0;entryDy=0;dashed=1;" edge="1" parent="Q2dZrIyihSpCJHTNgfPx-53" source="Q2dZrIyihSpCJHTNgfPx-40" target="Q2dZrIyihSpCJHTNgfPx-41">
          <mxGeometry relative="1" as="geometry" />
        </mxCell>
        <mxCell id="Q2dZrIyihSpCJHTNgfPx-40" value="long" style="rounded=1;fontSize=18;shadow=1;shadowOpacity=100;shadowOffsetX=3;shadowOffsetY=-3;shadowBlur=0;" vertex="1" parent="Q2dZrIyihSpCJHTNgfPx-53">
          <mxGeometry x="500" y="120" width="100" height="50" as="geometry" />
        </mxCell>
        <mxCell id="Q2dZrIyihSpCJHTNgfPx-49" value="" style="edgeStyle=orthogonalEdgeStyle;rounded=0;orthogonalLoop=1;jettySize=auto;exitX=1;exitY=0.5;exitDx=0;exitDy=0;entryX=0;entryY=0.5;entryDx=0;entryDy=0;" edge="1" parent="Q2dZrIyihSpCJHTNgfPx-53" source="Q2dZrIyihSpCJHTNgfPx-41" target="Q2dZrIyihSpCJHTNgfPx-42">
          <mxGeometry relative="1" as="geometry" />
        </mxCell>
        <mxCell id="Q2dZrIyihSpCJHTNgfPx-41" value="float" style="rounded=1;fontSize=18;shadow=1;shadowOpacity=100;shadowOffsetX=3;shadowOffsetY=-3;shadowBlur=0;" vertex="1" parent="Q2dZrIyihSpCJHTNgfPx-53">
          <mxGeometry x="340" y="220" width="100" height="50" as="geometry" />
        </mxCell>
        <mxCell id="Q2dZrIyihSpCJHTNgfPx-42" value="double" style="rounded=1;fontSize=18;shadow=1;shadowOpacity=100;shadowOffsetX=3;shadowOffsetY=-3;shadowBlur=0;" vertex="1" parent="Q2dZrIyihSpCJHTNgfPx-53">
          <mxGeometry x="500" y="220" width="100" height="50" as="geometry" />
        </mxCell>
        <mxCell id="Q2dZrIyihSpCJHTNgfPx-47" value="" style="edgeStyle=orthogonalEdgeStyle;rounded=0;orthogonalLoop=1;jettySize=auto;exitX=0.5;exitY=1;exitDx=0;exitDy=0;entryX=0.5;entryY=0;entryDx=0;entryDy=0;" edge="1" parent="Q2dZrIyihSpCJHTNgfPx-53" source="Q2dZrIyihSpCJHTNgfPx-43" target="Q2dZrIyihSpCJHTNgfPx-39">
          <mxGeometry relative="1" as="geometry" />
        </mxCell>
        <mxCell id="Q2dZrIyihSpCJHTNgfPx-43" value="char" style="rounded=1;fontSize=18;shadow=1;shadowOpacity=100;shadowOffsetX=3;shadowOffsetY=-3;shadowBlur=0;" vertex="1" parent="Q2dZrIyihSpCJHTNgfPx-53">
          <mxGeometry x="340" y="20" width="100" height="50" as="geometry" />
        </mxCell>
        <mxCell id="Q2dZrIyihSpCJHTNgfPx-51" value="" style="rounded=0;orthogonalLoop=1;jettySize=auto;exitX=1;exitY=1;exitDx=0;exitDy=0;entryX=0;entryY=0;entryDx=0;entryDy=0;" edge="1" parent="Q2dZrIyihSpCJHTNgfPx-53" source="Q2dZrIyihSpCJHTNgfPx-39" target="Q2dZrIyihSpCJHTNgfPx-42">
          <mxGeometry relative="1" as="geometry" />
        </mxCell>
      </root>
    </mxGraphModel>
  </diagram>
  <diagram id="45gFnSymhtEaGrk2eZ0L" name="priority">
    <mxGraphModel dx="1235" dy="374" grid="1" gridSize="10" guides="1" tooltips="1" connect="1" arrows="1" fold="1" page="1" pageScale="1" pageWidth="291" pageHeight="413" math="0" shadow="0">
      <root>
        <mxCell id="0" />
        <mxCell id="1" parent="0" />
        <mxCell id="ENXVl--YdrZYgib9VYfc-1" value="Assets" style="childLayout=tableLayout;recursiveResize=0;strokeColor=#98bf21;fillColor=#A7C942;shadow=0;rounded=0;align=center;verticalAlign=middle;fontFamily=Helvetica;fontSize=18;fontColor=default;" vertex="1" parent="1">
          <mxGeometry x="40" y="480" width="800" height="475" as="geometry" />
        </mxCell>
        <mxCell id="ENXVl--YdrZYgib9VYfc-2" value="" style="shape=tableRow;horizontal=0;startSize=0;swimlaneHead=0;swimlaneBody=0;top=0;left=0;bottom=0;right=0;dropTarget=0;collapsible=0;recursiveResize=0;expand=0;fontStyle=0;strokeColor=inherit;fillColor=#ffffff;rounded=0;align=center;verticalAlign=middle;fontFamily=Helvetica;fontSize=18;fontColor=default;" vertex="1" parent="ENXVl--YdrZYgib9VYfc-1">
          <mxGeometry width="800" height="33" as="geometry" />
        </mxCell>
        <mxCell id="ENXVl--YdrZYgib9VYfc-3" value="优先级" style="connectable=0;recursiveResize=0;strokeColor=inherit;fillColor=#A7C942;align=center;fontStyle=1;fontColor=#FFFFFF;rounded=0;verticalAlign=middle;fontFamily=Helvetica;fontSize=18;" vertex="1" parent="ENXVl--YdrZYgib9VYfc-2">
          <mxGeometry width="93" height="33" as="geometry">
            <mxRectangle width="93" height="33" as="alternateBounds" />
          </mxGeometry>
        </mxCell>
        <mxCell id="ENXVl--YdrZYgib9VYfc-4" value="运算符" style="connectable=0;recursiveResize=0;strokeColor=inherit;fillColor=#A7C942;align=center;fontStyle=1;fontColor=#FFFFFF;rounded=0;verticalAlign=middle;fontFamily=Helvetica;fontSize=18;" vertex="1" parent="ENXVl--YdrZYgib9VYfc-2">
          <mxGeometry x="93" width="547" height="33" as="geometry">
            <mxRectangle width="547" height="33" as="alternateBounds" />
          </mxGeometry>
        </mxCell>
        <mxCell id="ENXVl--YdrZYgib9VYfc-5" value="结合性" style="connectable=0;recursiveResize=0;strokeColor=inherit;fillColor=#A7C942;align=center;fontStyle=1;fontColor=#FFFFFF;rounded=0;verticalAlign=middle;fontFamily=Helvetica;fontSize=18;" vertex="1" parent="ENXVl--YdrZYgib9VYfc-2">
          <mxGeometry x="640" width="160" height="33" as="geometry">
            <mxRectangle width="160" height="33" as="alternateBounds" />
          </mxGeometry>
        </mxCell>
        <mxCell id="ENXVl--YdrZYgib9VYfc-6" value="" style="shape=tableRow;horizontal=0;startSize=0;swimlaneHead=0;swimlaneBody=0;top=0;left=0;bottom=0;right=0;dropTarget=0;collapsible=0;recursiveResize=0;expand=0;fontStyle=0;strokeColor=inherit;fillColor=#ffffff;rounded=0;align=center;verticalAlign=middle;fontFamily=Helvetica;fontSize=18;fontColor=default;" vertex="1" parent="ENXVl--YdrZYgib9VYfc-1">
          <mxGeometry y="33" width="800" height="32" as="geometry" />
        </mxCell>
        <mxCell id="ENXVl--YdrZYgib9VYfc-7" value="1" style="connectable=0;recursiveResize=0;strokeColor=inherit;fillColor=inherit;align=center;rounded=0;verticalAlign=middle;fontFamily=Helvetica;fontSize=18;fontColor=default;" vertex="1" parent="ENXVl--YdrZYgib9VYfc-6">
          <mxGeometry width="93" height="32" as="geometry">
            <mxRectangle width="93" height="32" as="alternateBounds" />
          </mxGeometry>
        </mxCell>
        <mxCell id="ENXVl--YdrZYgib9VYfc-8" value="()、[]、()" style="connectable=0;recursiveResize=0;strokeColor=inherit;fillColor=inherit;align=center;rounded=0;verticalAlign=middle;fontFamily=Helvetica;fontSize=18;fontColor=default;" vertex="1" parent="ENXVl--YdrZYgib9VYfc-6">
          <mxGeometry x="93" width="547" height="32" as="geometry">
            <mxRectangle width="547" height="32" as="alternateBounds" />
          </mxGeometry>
        </mxCell>
        <mxCell id="ENXVl--YdrZYgib9VYfc-9" value="自左向右" style="connectable=0;recursiveResize=0;strokeColor=inherit;fillColor=inherit;align=center;rounded=0;verticalAlign=middle;fontFamily=Helvetica;fontSize=18;fontColor=default;" vertex="1" parent="ENXVl--YdrZYgib9VYfc-6">
          <mxGeometry x="640" width="160" height="32" as="geometry">
            <mxRectangle width="160" height="32" as="alternateBounds" />
          </mxGeometry>
        </mxCell>
        <mxCell id="ENXVl--YdrZYgib9VYfc-10" value="" style="shape=tableRow;horizontal=0;startSize=0;swimlaneHead=0;swimlaneBody=0;top=0;left=0;bottom=0;right=0;dropTarget=0;collapsible=0;recursiveResize=0;expand=0;fontStyle=1;strokeColor=inherit;fillColor=#EAF2D3;rounded=0;align=center;verticalAlign=middle;fontFamily=Helvetica;fontSize=18;fontColor=default;" vertex="1" parent="ENXVl--YdrZYgib9VYfc-1">
          <mxGeometry y="65" width="800" height="31" as="geometry" />
        </mxCell>
        <mxCell id="ENXVl--YdrZYgib9VYfc-11" value="2" style="connectable=0;recursiveResize=0;strokeColor=inherit;fillColor=inherit;rounded=0;align=center;verticalAlign=middle;fontFamily=Helvetica;fontSize=18;fontColor=default;" vertex="1" parent="ENXVl--YdrZYgib9VYfc-10">
          <mxGeometry width="93" height="31" as="geometry">
            <mxRectangle width="93" height="31" as="alternateBounds" />
          </mxGeometry>
        </mxCell>
        <UserObject label="!、+、-、~、++、--" tooltip="! 逻辑非：用来反转操作数的逻辑状态，如果条件为 true，则逻辑非将得到 false（逻辑运算符）。&#xa;+ 正号:数字前面取正号表示一个正数。&#xa;- 负号:数字前面取负号表示一个负数。&#xa;~ 取反：翻转操作数的二进制的每一位，即 0 变为 1，1 变为 0（位运算符）。&#xa;++ 自增运算&#xa;-- 自减运算" id="ENXVl--YdrZYgib9VYfc-12">
          <mxCell style="connectable=0;recursiveResize=0;strokeColor=inherit;fillColor=inherit;rounded=0;align=center;verticalAlign=middle;fontFamily=Helvetica;fontSize=18;fontColor=default;" vertex="1" parent="ENXVl--YdrZYgib9VYfc-10">
            <mxGeometry x="93" width="547" height="31" as="geometry">
              <mxRectangle width="547" height="31" as="alternateBounds" />
            </mxGeometry>
          </mxCell>
        </UserObject>
        <mxCell id="ENXVl--YdrZYgib9VYfc-13" value="自右向左" style="connectable=0;recursiveResize=0;strokeColor=inherit;fillColor=inherit;rounded=0;align=center;verticalAlign=middle;fontFamily=Helvetica;fontSize=18;fontColor=default;" vertex="1" parent="ENXVl--YdrZYgib9VYfc-10">
          <mxGeometry x="640" width="160" height="31" as="geometry">
            <mxRectangle width="160" height="31" as="alternateBounds" />
          </mxGeometry>
        </mxCell>
        <mxCell id="ENXVl--YdrZYgib9VYfc-14" value="" style="shape=tableRow;horizontal=0;startSize=0;swimlaneHead=0;swimlaneBody=0;top=0;left=0;bottom=0;right=0;dropTarget=0;collapsible=0;recursiveResize=0;expand=0;fontStyle=0;strokeColor=inherit;fillColor=#ffffff;rounded=0;align=center;verticalAlign=middle;fontFamily=Helvetica;fontSize=18;fontColor=default;" vertex="1" parent="ENXVl--YdrZYgib9VYfc-1">
          <mxGeometry y="96" width="800" height="32" as="geometry" />
        </mxCell>
        <mxCell id="ENXVl--YdrZYgib9VYfc-15" value="3" style="connectable=0;recursiveResize=0;strokeColor=inherit;fillColor=inherit;align=center;rounded=0;verticalAlign=middle;fontFamily=Helvetica;fontSize=18;fontColor=default;" vertex="1" parent="ENXVl--YdrZYgib9VYfc-14">
          <mxGeometry width="93" height="32" as="geometry">
            <mxRectangle width="93" height="32" as="alternateBounds" />
          </mxGeometry>
        </mxCell>
        <UserObject label="*、/、%" tooltip="* 乘法运算（算术运算符）&#xa;/ 除法运算。注意：与数学中一样，0 不能作为除数（算术运算符）&#xa;% 取余运算，获取除法运算之后的余数（算术运算符）" id="ENXVl--YdrZYgib9VYfc-16">
          <mxCell style="connectable=0;recursiveResize=0;strokeColor=inherit;fillColor=inherit;align=center;rounded=0;verticalAlign=middle;fontFamily=Helvetica;fontSize=18;fontColor=default;" vertex="1" parent="ENXVl--YdrZYgib9VYfc-14">
            <mxGeometry x="93" width="547" height="32" as="geometry">
              <mxRectangle width="547" height="32" as="alternateBounds" />
            </mxGeometry>
          </mxCell>
        </UserObject>
        <mxCell id="ENXVl--YdrZYgib9VYfc-17" value="自左向右" style="connectable=0;recursiveResize=0;strokeColor=inherit;fillColor=inherit;align=center;rounded=0;verticalAlign=middle;fontFamily=Helvetica;fontSize=18;fontColor=default;" vertex="1" parent="ENXVl--YdrZYgib9VYfc-14">
          <mxGeometry x="640" width="160" height="32" as="geometry">
            <mxRectangle width="160" height="32" as="alternateBounds" />
          </mxGeometry>
        </mxCell>
        <mxCell id="ENXVl--YdrZYgib9VYfc-18" value="" style="shape=tableRow;horizontal=0;startSize=0;swimlaneHead=0;swimlaneBody=0;top=0;left=0;bottom=0;right=0;dropTarget=0;collapsible=0;recursiveResize=0;expand=0;fontStyle=1;strokeColor=inherit;fillColor=#EAF2D3;rounded=0;align=center;verticalAlign=middle;fontFamily=Helvetica;fontSize=18;fontColor=default;" vertex="1" parent="ENXVl--YdrZYgib9VYfc-1">
          <mxGeometry y="128" width="800" height="31" as="geometry" />
        </mxCell>
        <mxCell id="ENXVl--YdrZYgib9VYfc-19" value="4" style="connectable=0;recursiveResize=0;strokeColor=inherit;fillColor=inherit;rounded=0;align=center;verticalAlign=middle;fontFamily=Helvetica;fontSize=18;fontColor=default;" vertex="1" parent="ENXVl--YdrZYgib9VYfc-18">
          <mxGeometry width="93" height="31" as="geometry">
            <mxRectangle width="93" height="31" as="alternateBounds" />
          </mxGeometry>
        </mxCell>
        <UserObject label="+、-" tooltip="+ 加法运算&#xa;- 减法运算" id="ENXVl--YdrZYgib9VYfc-20">
          <mxCell style="connectable=0;recursiveResize=0;strokeColor=inherit;fillColor=inherit;rounded=0;align=center;verticalAlign=middle;fontFamily=Helvetica;fontSize=18;fontColor=default;" vertex="1" parent="ENXVl--YdrZYgib9VYfc-18">
            <mxGeometry x="93" width="547" height="31" as="geometry">
              <mxRectangle width="547" height="31" as="alternateBounds" />
            </mxGeometry>
          </mxCell>
        </UserObject>
        <mxCell id="ENXVl--YdrZYgib9VYfc-21" value="自左向右" style="connectable=0;recursiveResize=0;strokeColor=inherit;fillColor=inherit;rounded=0;align=center;verticalAlign=middle;fontFamily=Helvetica;fontSize=18;fontColor=default;" vertex="1" parent="ENXVl--YdrZYgib9VYfc-18">
          <mxGeometry x="640" width="160" height="31" as="geometry">
            <mxRectangle width="160" height="31" as="alternateBounds" />
          </mxGeometry>
        </mxCell>
        <mxCell id="ENXVl--YdrZYgib9VYfc-22" value="" style="shape=tableRow;horizontal=0;startSize=0;swimlaneHead=0;swimlaneBody=0;top=0;left=0;bottom=0;right=0;dropTarget=0;collapsible=0;recursiveResize=0;expand=0;fontStyle=0;strokeColor=inherit;fillColor=#ffffff;rounded=0;align=center;verticalAlign=middle;fontFamily=Helvetica;fontSize=18;fontColor=default;" vertex="1" parent="ENXVl--YdrZYgib9VYfc-1">
          <mxGeometry y="159" width="800" height="32" as="geometry" />
        </mxCell>
        <mxCell id="ENXVl--YdrZYgib9VYfc-23" value="5" style="connectable=0;recursiveResize=0;strokeColor=inherit;fillColor=inherit;align=center;rounded=0;verticalAlign=middle;fontFamily=Helvetica;fontSize=18;fontColor=default;" vertex="1" parent="ENXVl--YdrZYgib9VYfc-22">
          <mxGeometry width="93" height="32" as="geometry">
            <mxRectangle width="93" height="32" as="alternateBounds" />
          </mxGeometry>
        </mxCell>
        <UserObject label="&lt;&lt;、&gt;&gt;、&gt;&gt;&gt;" tooltip="&lt;&lt; 按位左移运算符：左操作数按位左移右操作数指定的位数（位运算符）。&#xa;&gt;&gt; 按位右移运算符：左操作数按位右移右操作数指定的位数。如果最高位是 0，左边补齐 0；如果最高位是 1，左边补齐 1（位运算符）。&#xa;&gt;&gt;&gt; 按位右移补零操作符：左操作数的值按右操作数指定的位数右移，移动得到的空位以 0 填充。无论最高位是 0 还是 1，左边补齐 0（位运算符）。" id="ENXVl--YdrZYgib9VYfc-24">
          <mxCell style="connectable=0;recursiveResize=0;strokeColor=inherit;fillColor=inherit;align=center;rounded=0;verticalAlign=middle;fontFamily=Helvetica;fontSize=18;fontColor=default;" vertex="1" parent="ENXVl--YdrZYgib9VYfc-22">
            <mxGeometry x="93" width="547" height="32" as="geometry">
              <mxRectangle width="547" height="32" as="alternateBounds" />
            </mxGeometry>
          </mxCell>
        </UserObject>
        <mxCell id="ENXVl--YdrZYgib9VYfc-25" value="自左向右" style="connectable=0;recursiveResize=0;strokeColor=inherit;fillColor=inherit;align=center;rounded=0;verticalAlign=middle;fontFamily=Helvetica;fontSize=18;fontColor=default;" vertex="1" parent="ENXVl--YdrZYgib9VYfc-22">
          <mxGeometry x="640" width="160" height="32" as="geometry">
            <mxRectangle width="160" height="32" as="alternateBounds" />
          </mxGeometry>
        </mxCell>
        <mxCell id="ENXVl--YdrZYgib9VYfc-26" value="" style="shape=tableRow;horizontal=0;startSize=0;swimlaneHead=0;swimlaneBody=0;top=0;left=0;bottom=0;right=0;dropTarget=0;collapsible=0;recursiveResize=0;expand=0;fontStyle=1;strokeColor=inherit;fillColor=#EAF2D3;rounded=0;align=center;verticalAlign=middle;fontFamily=Helvetica;fontSize=18;fontColor=default;" vertex="1" parent="ENXVl--YdrZYgib9VYfc-1">
          <mxGeometry y="191" width="800" height="31" as="geometry" />
        </mxCell>
        <mxCell id="ENXVl--YdrZYgib9VYfc-27" value="6" style="connectable=0;recursiveResize=0;strokeColor=inherit;fillColor=inherit;rounded=0;align=center;verticalAlign=middle;fontFamily=Helvetica;fontSize=18;fontColor=default;" vertex="1" parent="ENXVl--YdrZYgib9VYfc-26">
          <mxGeometry width="93" height="31" as="geometry">
            <mxRectangle width="93" height="31" as="alternateBounds" />
          </mxGeometry>
        </mxCell>
        <UserObject label="&gt;、&gt;=、&lt;、&lt;=、instanceof" tooltip="&gt; 大于：检查符号左边的值是否大于右边的值（关系运算符）。&#xa;&gt;= 大于等于：检查符号左边的值是否大于或等于右边的值（关系运算符）。&#xa;&lt; 小于：检查符号左边的值是否小于右边的值（关系运算符）。&#xa;&lt;= 小于等于：检查符号左边的值是否小于或等于右边的值（关系运算符）。&#xa;instanceof 关键字：用在 if 语句中，一般用来判断一个对象是否是此类型的对象，返回值为 boolean 类型。" id="ENXVl--YdrZYgib9VYfc-28">
          <mxCell style="connectable=0;recursiveResize=0;strokeColor=inherit;fillColor=inherit;rounded=0;align=center;verticalAlign=middle;fontFamily=Helvetica;fontSize=18;fontColor=default;" vertex="1" parent="ENXVl--YdrZYgib9VYfc-26">
            <mxGeometry x="93" width="547" height="31" as="geometry">
              <mxRectangle width="547" height="31" as="alternateBounds" />
            </mxGeometry>
          </mxCell>
        </UserObject>
        <mxCell id="ENXVl--YdrZYgib9VYfc-29" value="自左向右" style="connectable=0;recursiveResize=0;strokeColor=inherit;fillColor=inherit;rounded=0;align=center;verticalAlign=middle;fontFamily=Helvetica;fontSize=18;fontColor=default;" vertex="1" parent="ENXVl--YdrZYgib9VYfc-26">
          <mxGeometry x="640" width="160" height="31" as="geometry">
            <mxRectangle width="160" height="31" as="alternateBounds" />
          </mxGeometry>
        </mxCell>
        <mxCell id="ENXVl--YdrZYgib9VYfc-30" value="" style="shape=tableRow;horizontal=0;startSize=0;swimlaneHead=0;swimlaneBody=0;top=0;left=0;bottom=0;right=0;dropTarget=0;collapsible=0;recursiveResize=0;expand=0;fontStyle=0;strokeColor=inherit;fillColor=#ffffff;rounded=0;align=center;verticalAlign=middle;fontFamily=Helvetica;fontSize=18;fontColor=default;" vertex="1" parent="ENXVl--YdrZYgib9VYfc-1">
          <mxGeometry y="222" width="800" height="32" as="geometry" />
        </mxCell>
        <mxCell id="ENXVl--YdrZYgib9VYfc-31" value="7" style="connectable=0;recursiveResize=0;strokeColor=inherit;fillColor=inherit;align=center;rounded=0;verticalAlign=middle;fontFamily=Helvetica;fontSize=18;fontColor=default;" vertex="1" parent="ENXVl--YdrZYgib9VYfc-30">
          <mxGeometry width="93" height="32" as="geometry">
            <mxRectangle width="93" height="32" as="alternateBounds" />
          </mxGeometry>
        </mxCell>
        <UserObject label="==、!=" tooltip="== 等于：检查符号两侧的值是否相等（关系运算符）。&#xa;!= 不等于：检查符号两侧的值是否不相等（关系运算符）。" id="ENXVl--YdrZYgib9VYfc-32">
          <mxCell style="connectable=0;recursiveResize=0;strokeColor=inherit;fillColor=inherit;align=center;rounded=0;verticalAlign=middle;fontFamily=Helvetica;fontSize=18;fontColor=default;" vertex="1" parent="ENXVl--YdrZYgib9VYfc-30">
            <mxGeometry x="93" width="547" height="32" as="geometry">
              <mxRectangle width="547" height="32" as="alternateBounds" />
            </mxGeometry>
          </mxCell>
        </UserObject>
        <mxCell id="ENXVl--YdrZYgib9VYfc-33" value="自左向右" style="connectable=0;recursiveResize=0;strokeColor=inherit;fillColor=inherit;align=center;rounded=0;verticalAlign=middle;fontFamily=Helvetica;fontSize=18;fontColor=default;" vertex="1" parent="ENXVl--YdrZYgib9VYfc-30">
          <mxGeometry x="640" width="160" height="32" as="geometry">
            <mxRectangle width="160" height="32" as="alternateBounds" />
          </mxGeometry>
        </mxCell>
        <mxCell id="ENXVl--YdrZYgib9VYfc-34" value="" style="shape=tableRow;horizontal=0;startSize=0;swimlaneHead=0;swimlaneBody=0;top=0;left=0;bottom=0;right=0;dropTarget=0;collapsible=0;recursiveResize=0;expand=0;fontStyle=1;strokeColor=inherit;fillColor=#EAF2D3;rounded=0;align=center;verticalAlign=middle;fontFamily=Helvetica;fontSize=18;fontColor=default;" vertex="1" parent="ENXVl--YdrZYgib9VYfc-1">
          <mxGeometry y="254" width="800" height="31" as="geometry" />
        </mxCell>
        <mxCell id="ENXVl--YdrZYgib9VYfc-35" value="8" style="connectable=0;recursiveResize=0;strokeColor=inherit;fillColor=inherit;rounded=0;align=center;verticalAlign=middle;fontFamily=Helvetica;fontSize=18;fontColor=default;" vertex="1" parent="ENXVl--YdrZYgib9VYfc-34">
          <mxGeometry width="93" height="31" as="geometry">
            <mxRectangle width="93" height="31" as="alternateBounds" />
          </mxGeometry>
        </mxCell>
        <UserObject label="&amp;" tooltip="1. 按位与：运算符两边的操作数的二进制的对应位的值都为 1，则结果为 1，否则为 0（位运算符）。&#xa;2. 与逻辑与相同，但是不会短路（逻辑运算符）、" id="ENXVl--YdrZYgib9VYfc-36">
          <mxCell style="connectable=0;recursiveResize=0;strokeColor=inherit;fillColor=inherit;rounded=0;align=center;verticalAlign=middle;fontFamily=Helvetica;fontSize=18;fontColor=default;" vertex="1" parent="ENXVl--YdrZYgib9VYfc-34">
            <mxGeometry x="93" width="547" height="31" as="geometry">
              <mxRectangle width="547" height="31" as="alternateBounds" />
            </mxGeometry>
          </mxCell>
        </UserObject>
        <mxCell id="ENXVl--YdrZYgib9VYfc-37" value="自左向右" style="connectable=0;recursiveResize=0;strokeColor=inherit;fillColor=inherit;rounded=0;align=center;verticalAlign=middle;fontFamily=Helvetica;fontSize=18;fontColor=default;" vertex="1" parent="ENXVl--YdrZYgib9VYfc-34">
          <mxGeometry x="640" width="160" height="31" as="geometry">
            <mxRectangle width="160" height="31" as="alternateBounds" />
          </mxGeometry>
        </mxCell>
        <mxCell id="ENXVl--YdrZYgib9VYfc-38" value="" style="shape=tableRow;horizontal=0;startSize=0;swimlaneHead=0;swimlaneBody=0;top=0;left=0;bottom=0;right=0;dropTarget=0;collapsible=0;recursiveResize=0;expand=0;fontStyle=0;strokeColor=inherit;fillColor=#ffffff;rounded=0;align=center;verticalAlign=middle;fontFamily=Helvetica;fontSize=18;fontColor=default;" vertex="1" parent="ENXVl--YdrZYgib9VYfc-1">
          <mxGeometry y="285" width="800" height="32" as="geometry" />
        </mxCell>
        <mxCell id="ENXVl--YdrZYgib9VYfc-39" value="9" style="connectable=0;recursiveResize=0;strokeColor=inherit;fillColor=inherit;align=center;rounded=0;verticalAlign=middle;fontFamily=Helvetica;fontSize=18;fontColor=default;" vertex="1" parent="ENXVl--YdrZYgib9VYfc-38">
          <mxGeometry width="93" height="32" as="geometry">
            <mxRectangle width="93" height="32" as="alternateBounds" />
          </mxGeometry>
        </mxCell>
        <UserObject label="^" tooltip="1. 按位异或：运算符两边的操作数的二进制的对应位的值相同，则结果为 0，否则为 1（位运算符）。&#xa;2. 逻辑异或，只有两个操作数不同时才返回 true，两个操作数相同时返回 false（逻辑运算符）。" id="ENXVl--YdrZYgib9VYfc-40">
          <mxCell style="connectable=0;recursiveResize=0;strokeColor=inherit;fillColor=inherit;align=center;rounded=0;verticalAlign=middle;fontFamily=Helvetica;fontSize=18;fontColor=default;" vertex="1" parent="ENXVl--YdrZYgib9VYfc-38">
            <mxGeometry x="93" width="547" height="32" as="geometry">
              <mxRectangle width="547" height="32" as="alternateBounds" />
            </mxGeometry>
          </mxCell>
        </UserObject>
        <mxCell id="ENXVl--YdrZYgib9VYfc-41" value="自左向右" style="connectable=0;recursiveResize=0;strokeColor=inherit;fillColor=inherit;align=center;rounded=0;verticalAlign=middle;fontFamily=Helvetica;fontSize=18;fontColor=default;" vertex="1" parent="ENXVl--YdrZYgib9VYfc-38">
          <mxGeometry x="640" width="160" height="32" as="geometry">
            <mxRectangle width="160" height="32" as="alternateBounds" />
          </mxGeometry>
        </mxCell>
        <mxCell id="ENXVl--YdrZYgib9VYfc-42" value="" style="shape=tableRow;horizontal=0;startSize=0;swimlaneHead=0;swimlaneBody=0;top=0;left=0;bottom=0;right=0;dropTarget=0;collapsible=0;recursiveResize=0;expand=0;fontStyle=1;strokeColor=inherit;fillColor=#EAF2D3;rounded=0;align=center;verticalAlign=middle;fontFamily=Helvetica;fontSize=18;fontColor=default;" vertex="1" parent="ENXVl--YdrZYgib9VYfc-1">
          <mxGeometry y="317" width="800" height="31" as="geometry" />
        </mxCell>
        <mxCell id="ENXVl--YdrZYgib9VYfc-43" value="10" style="connectable=0;recursiveResize=0;strokeColor=inherit;fillColor=inherit;rounded=0;align=center;verticalAlign=middle;fontFamily=Helvetica;fontSize=18;fontColor=default;" vertex="1" parent="ENXVl--YdrZYgib9VYfc-42">
          <mxGeometry width="93" height="31" as="geometry">
            <mxRectangle width="93" height="31" as="alternateBounds" />
          </mxGeometry>
        </mxCell>
        <UserObject label="|" tooltip="1. 按位或：运算符两边的操作数的二进制的对应位的值都为 0，则结果为 0，否则为 1（位运算符）。&#xa;2. 与逻辑或相同，但是不会短路（逻辑运算符）。" id="ENXVl--YdrZYgib9VYfc-44">
          <mxCell style="connectable=0;recursiveResize=0;strokeColor=inherit;fillColor=inherit;rounded=0;align=center;verticalAlign=middle;fontFamily=Helvetica;fontSize=18;fontColor=default;fontStyle=0;html=1;" vertex="1" parent="ENXVl--YdrZYgib9VYfc-42">
            <mxGeometry x="93" width="547" height="31" as="geometry">
              <mxRectangle width="547" height="31" as="alternateBounds" />
            </mxGeometry>
          </mxCell>
        </UserObject>
        <mxCell id="ENXVl--YdrZYgib9VYfc-45" value="自左向右" style="connectable=0;recursiveResize=0;strokeColor=inherit;fillColor=inherit;rounded=0;align=center;verticalAlign=middle;fontFamily=Helvetica;fontSize=18;fontColor=default;" vertex="1" parent="ENXVl--YdrZYgib9VYfc-42">
          <mxGeometry x="640" width="160" height="31" as="geometry">
            <mxRectangle width="160" height="31" as="alternateBounds" />
          </mxGeometry>
        </mxCell>
        <mxCell id="ENXVl--YdrZYgib9VYfc-46" value="" style="shape=tableRow;horizontal=0;startSize=0;swimlaneHead=0;swimlaneBody=0;top=0;left=0;bottom=0;right=0;dropTarget=0;collapsible=0;recursiveResize=0;expand=0;fontStyle=0;strokeColor=inherit;fillColor=#ffffff;rounded=0;align=center;verticalAlign=middle;fontFamily=Helvetica;fontSize=18;fontColor=default;" vertex="1" parent="ENXVl--YdrZYgib9VYfc-1">
          <mxGeometry y="348" width="800" height="33" as="geometry" />
        </mxCell>
        <mxCell id="ENXVl--YdrZYgib9VYfc-47" value="11" style="connectable=0;recursiveResize=0;strokeColor=inherit;fillColor=inherit;fontStyle=0;align=center;rounded=0;verticalAlign=middle;fontFamily=Helvetica;fontSize=18;fontColor=default;" vertex="1" parent="ENXVl--YdrZYgib9VYfc-46">
          <mxGeometry width="93" height="33" as="geometry">
            <mxRectangle width="93" height="33" as="alternateBounds" />
          </mxGeometry>
        </mxCell>
        <UserObject label="&amp;&amp;" tooltip="逻辑与，当且仅当操作符两侧的操作数都为 true 时，条件才为 true（逻辑运算符）。" id="ENXVl--YdrZYgib9VYfc-48">
          <mxCell style="connectable=0;recursiveResize=0;strokeColor=inherit;fillColor=inherit;fontStyle=0;align=center;rounded=0;verticalAlign=middle;fontFamily=Helvetica;fontSize=18;fontColor=default;" vertex="1" parent="ENXVl--YdrZYgib9VYfc-46">
            <mxGeometry x="93" width="547" height="33" as="geometry">
              <mxRectangle width="547" height="33" as="alternateBounds" />
            </mxGeometry>
          </mxCell>
        </UserObject>
        <mxCell id="ENXVl--YdrZYgib9VYfc-49" value="自左向右" style="connectable=0;recursiveResize=0;strokeColor=inherit;fillColor=inherit;fontStyle=0;align=center;rounded=0;verticalAlign=middle;fontFamily=Helvetica;fontSize=18;fontColor=default;" vertex="1" parent="ENXVl--YdrZYgib9VYfc-46">
          <mxGeometry x="640" width="160" height="33" as="geometry">
            <mxRectangle width="160" height="33" as="alternateBounds" />
          </mxGeometry>
        </mxCell>
        <mxCell id="ENXVl--YdrZYgib9VYfc-50" value="" style="shape=tableRow;horizontal=0;startSize=0;swimlaneHead=0;swimlaneBody=0;top=0;left=0;bottom=0;right=0;dropTarget=0;collapsible=0;recursiveResize=0;expand=0;fontStyle=1;strokeColor=inherit;fillColor=#EAF2D3;rounded=0;align=center;verticalAlign=middle;fontFamily=Helvetica;fontSize=18;fontColor=default;" vertex="1" parent="ENXVl--YdrZYgib9VYfc-1">
          <mxGeometry y="381" width="800" height="31" as="geometry" />
        </mxCell>
        <mxCell id="ENXVl--YdrZYgib9VYfc-51" value="12" style="connectable=0;recursiveResize=0;strokeColor=inherit;fillColor=inherit;rounded=0;align=center;verticalAlign=middle;fontFamily=Helvetica;fontSize=18;fontColor=default;" vertex="1" parent="ENXVl--YdrZYgib9VYfc-50">
          <mxGeometry width="93" height="31" as="geometry">
            <mxRectangle width="93" height="31" as="alternateBounds" />
          </mxGeometry>
        </mxCell>
        <UserObject label="||" tooltip="逻辑或，如果操作符两侧任意一侧为 true 时，条件为 true（逻辑运算符）。" id="ENXVl--YdrZYgib9VYfc-52">
          <mxCell style="connectable=0;recursiveResize=0;strokeColor=inherit;fillColor=inherit;rounded=0;align=center;verticalAlign=middle;fontFamily=Helvetica;fontSize=18;fontColor=default;html=1;" vertex="1" parent="ENXVl--YdrZYgib9VYfc-50">
            <mxGeometry x="93" width="547" height="31" as="geometry">
              <mxRectangle width="547" height="31" as="alternateBounds" />
            </mxGeometry>
          </mxCell>
        </UserObject>
        <mxCell id="ENXVl--YdrZYgib9VYfc-53" value="自左向右" style="connectable=0;recursiveResize=0;strokeColor=inherit;fillColor=inherit;rounded=0;align=center;verticalAlign=middle;fontFamily=Helvetica;fontSize=18;fontColor=default;" vertex="1" parent="ENXVl--YdrZYgib9VYfc-50">
          <mxGeometry x="640" width="160" height="31" as="geometry">
            <mxRectangle width="160" height="31" as="alternateBounds" />
          </mxGeometry>
        </mxCell>
        <mxCell id="ENXVl--YdrZYgib9VYfc-54" value="" style="shape=tableRow;horizontal=0;startSize=0;swimlaneHead=0;swimlaneBody=0;top=0;left=0;bottom=0;right=0;dropTarget=0;collapsible=0;recursiveResize=0;expand=0;fontStyle=0;strokeColor=inherit;fillColor=#ffffff;rounded=0;align=center;verticalAlign=middle;fontFamily=Helvetica;fontSize=18;fontColor=default;" vertex="1" parent="ENXVl--YdrZYgib9VYfc-1">
          <mxGeometry y="412" width="800" height="32" as="geometry" />
        </mxCell>
        <mxCell id="ENXVl--YdrZYgib9VYfc-55" value="13" style="connectable=0;recursiveResize=0;strokeColor=inherit;fillColor=inherit;align=center;rounded=0;verticalAlign=middle;fontFamily=Helvetica;fontSize=18;fontColor=default;" vertex="1" parent="ENXVl--YdrZYgib9VYfc-54">
          <mxGeometry width="93" height="32" as="geometry">
            <mxRectangle width="93" height="32" as="alternateBounds" />
          </mxGeometry>
        </mxCell>
        <UserObject label="?:" tooltip="三目运算符：布尔表达式 ? 表达式1 : 表达式2; 。根据表达式的计算返回一个 true 或者 false，如果是 true，就把表达式 1 作为结果返回；如果是 false，就把表达式 2 作为结果。" id="ENXVl--YdrZYgib9VYfc-56">
          <mxCell style="connectable=0;recursiveResize=0;strokeColor=inherit;fillColor=inherit;align=center;rounded=0;verticalAlign=middle;fontFamily=Helvetica;fontSize=18;fontColor=default;" vertex="1" parent="ENXVl--YdrZYgib9VYfc-54">
            <mxGeometry x="93" width="547" height="32" as="geometry">
              <mxRectangle width="547" height="32" as="alternateBounds" />
            </mxGeometry>
          </mxCell>
        </UserObject>
        <mxCell id="ENXVl--YdrZYgib9VYfc-57" value="自右向左" style="connectable=0;recursiveResize=0;strokeColor=inherit;fillColor=inherit;align=center;rounded=0;verticalAlign=middle;fontFamily=Helvetica;fontSize=18;fontColor=default;" vertex="1" parent="ENXVl--YdrZYgib9VYfc-54">
          <mxGeometry x="640" width="160" height="32" as="geometry">
            <mxRectangle width="160" height="32" as="alternateBounds" />
          </mxGeometry>
        </mxCell>
        <mxCell id="ENXVl--YdrZYgib9VYfc-58" value="" style="shape=tableRow;horizontal=0;startSize=0;swimlaneHead=0;swimlaneBody=0;top=0;left=0;bottom=0;right=0;dropTarget=0;collapsible=0;recursiveResize=0;expand=0;fontStyle=1;strokeColor=inherit;fillColor=#EAF2D3;rounded=0;align=center;verticalAlign=middle;fontFamily=Helvetica;fontSize=18;fontColor=default;" vertex="1" parent="ENXVl--YdrZYgib9VYfc-1">
          <mxGeometry y="444" width="800" height="31" as="geometry" />
        </mxCell>
        <mxCell id="ENXVl--YdrZYgib9VYfc-59" value="14" style="connectable=0;recursiveResize=0;strokeColor=inherit;fillColor=inherit;rounded=0;align=center;verticalAlign=middle;fontFamily=Helvetica;fontSize=18;fontColor=default;" vertex="1" parent="ENXVl--YdrZYgib9VYfc-58">
          <mxGeometry width="93" height="31" as="geometry">
            <mxRectangle width="93" height="31" as="alternateBounds" />
          </mxGeometry>
        </mxCell>
        <UserObject label="=、+=、-=、*=、/=、&amp;=、|=、^=、~=、&lt;&lt;=、&gt;&gt;=、&gt;&gt;&gt;=" tooltip="= 赋值运算符，将符号右边的计算的结果值赋给左边的变量。&#xa;+= 和赋值运算符，将符号左边的值与右边的加起来再赋给左边的变量。&#xa;-= 减赋值运算符，将符号左边的值减去右边的值，再将结果赋给左边的变量。&#xa;*= 积赋值运算符，将符号左边的值与右边的相乘再赋给左边的变量。&#xa;/= 商赋值运算符，将符号左边的值除以右边的值，再将结果赋给左边的变量。&#xa;%= 取余赋值运算符，将符号左边的值除以右边的值，再将除后的余数赋给左边的变量。&#xa;&amp;= 按位与赋值运算符，将符号两边的值二进制比较，对应位的值都为 1，则结果为 1，否则为 0，再将结果赋给左边的变量。&#xa;!= 按位或赋值运算符，将符号两边的值二进制比较，对应位的值都为 0，则结果为 0，否则为 1，再将结果赋给左边的变量。&#xa;^= 按位异或赋值运算符，将符号两边的值二进制比较，对应位的值相同，则结果为 0，否则为 1，再将结果赋给左边的变量。&#xa;&lt;&lt;= 左移赋值运算符，将左边的值的二进制数向左移动右边值个单位，再赋给左边的变量。&#xa;&gt;&gt;= 右移赋值运算符，将左边的值的二进制数向右移动右边值个单位，再赋给左边的变量。" id="ENXVl--YdrZYgib9VYfc-60">
          <mxCell style="connectable=0;recursiveResize=0;strokeColor=inherit;fillColor=inherit;rounded=0;align=center;verticalAlign=middle;fontFamily=Helvetica;fontSize=18;fontColor=default;" vertex="1" parent="ENXVl--YdrZYgib9VYfc-58">
            <mxGeometry x="93" width="547" height="31" as="geometry">
              <mxRectangle width="547" height="31" as="alternateBounds" />
            </mxGeometry>
          </mxCell>
        </UserObject>
        <mxCell id="ENXVl--YdrZYgib9VYfc-61" value="自右向左" style="connectable=0;recursiveResize=0;strokeColor=inherit;fillColor=inherit;rounded=0;align=center;verticalAlign=middle;fontFamily=Helvetica;fontSize=18;fontColor=default;" vertex="1" parent="ENXVl--YdrZYgib9VYfc-58">
          <mxGeometry x="640" width="160" height="31" as="geometry">
            <mxRectangle width="160" height="31" as="alternateBounds" />
          </mxGeometry>
        </mxCell>
      </root>
    </mxGraphModel>
  </diagram>
</mxfile>
